<?xml version="1.0" standalone="no"?><!DOCTYPE svg PUBLIC "-//W3C//DTD SVG 1.1//EN" "http://www.w3.org/Graphics/SVG/1.1/DTD/svg11.dtd"><svg t="1699338504632" class="icon" viewBox="0 0 1024 1024" version="1.1" xmlns="http://www.w3.org/2000/svg" p-id="15323" xmlns:xlink="http://www.w3.org/1999/xlink" width="200" height="200"><path d="M857.6 25.6a76.8 76.8 0 0 1 76.8 76.8v819.2a76.8 76.8 0 0 1-76.8 76.8H166.4a76.8 76.8 0 0 1-76.8-76.8V102.4a76.8 76.8 0 0 1 76.8-76.8h691.2zM716.8 704H307.2l-2.2528 0.064a38.4 38.4 0 0 0 0 76.672L307.2 780.8h409.6l2.2528-0.064a38.4 38.4 0 0 0 0-76.672L716.8 704z m0-460.8H307.2l-2.2528 0.064a38.4 38.4 0 0 0 0 76.672L307.2 320h409.6l2.2528-0.064a38.4 38.4 0 0 0 0-76.672L716.8 243.2z" fill="#6B57FE" p-id="15324"></path><path d="M563.2 473.6a38.4 38.4 0 0 1 2.2528 76.736L563.2 550.4H307.2a38.4 38.4 0 0 1-2.2528-76.736L307.2 473.6h256z" fill="#FFBA00" p-id="15325"></path></svg>