<?xml version="1.0" standalone="no"?><!DOCTYPE svg PUBLIC "-//W3C//DTD SVG 1.1//EN" "http://www.w3.org/Graphics/SVG/1.1/DTD/svg11.dtd"><svg t="1694066514087" class="icon" viewBox="0 0 1024 1024" version="1.1" xmlns="http://www.w3.org/2000/svg" p-id="10812" xmlns:xlink="http://www.w3.org/1999/xlink" width="200" height="200"><path d="M1015.876 679.772v64.296c0 26.4-21.586 47.988-47.988 47.988H512v-32.304c13.278 0 23.992-10.716 23.992-23.994s-10.714-23.994-23.992-23.994v-31.992h503.876z" fill="#FFFFFF" p-id="10813"></path><path d="M512 711.764c13.278 0 23.992 10.716 23.992 23.994s-10.714 23.994-23.992 23.994-23.994-10.716-23.994-23.994 10.716-23.994 23.994-23.994z" fill="#94C1FF" p-id="10814"></path><path d="M1015.876 744.068v31.68c0 27.026-20.96 47.988-47.988 47.988H56.114c-27.024 0-47.988-20.962-47.988-47.988v-31.68c0 26.4 21.604 47.988 47.988 47.988h911.772c26.404 0 47.99-21.588 47.99-47.988zM615.816 823.736l31.992 143.964H376.19l31.992-143.964h207.634z" fill="#D7E9FF" p-id="10815"></path><path d="M24.526 779.856c-9.966-8.808-16.402-21.526-16.402-35.788v31.68c0 27.026 20.964 47.988 47.988 47.988h15.996c-25.618 0-45.534-18.902-47.582-43.88z" fill="#FFFFFF" p-id="10816"></path><path d="M999.472 779.856c-2.032 24.978-21.96 43.88-47.582 43.88h15.996c27.028 0 47.988-20.962 47.988-47.988v-31.68c0.002 14.262-6.432 26.978-16.402 35.788z" fill="#94C1FF" p-id="10817"></path><path d="M512 759.752v32.304H56.112c-26.384 0-47.988-21.588-47.988-47.988v-64.296H512v31.992c-13.278 0-23.994 10.716-23.994 23.994s10.716 23.994 23.994 23.994z" fill="#FFFFFF" p-id="10818"></path><path d="M1015.876 104.224v575.546H8.124V104.224c0-26.39 21.604-47.988 47.988-47.988h911.774c26.404 0 47.99 21.598 47.99 47.988z m-47.99 527.56V103.904H56.112v527.878h911.774z" fill="#94C1FF" p-id="10819"></path><path d="M72.108 56.236h-15.996c-26.384 0-47.988 21.598-47.988 47.988v575.546h15.996V104.224c0-26.39 21.604-47.988 47.988-47.988z" fill="#D7E9FF" p-id="10820"></path><path d="M967.886 56.236h-15.996c26.402 0 47.988 21.598 47.988 47.988v575.546h15.996V104.224c0.002-26.39-21.584-47.988-47.988-47.988z" fill="#5C9EFF" p-id="10821"></path><path d="M619.378 839.732l-3.562-15.996H408.182l-3.562 15.996h214.758zM603.382 839.732l28.43 127.968h15.996l-28.43-127.968h-15.996z" fill="#94C1FF" p-id="10822"></path><path d="M420.632 839.732l-28.446 127.968h-15.996l28.446-127.968h15.996z" fill="#FFFFFF" p-id="10823"></path><path d="M56.112 104.068h31.992v528.028H56.112z" fill="#D7E9FF" p-id="10824"></path><path d="M88.104 104.224h879.782v527.714H88.104z" fill="#FFFFFF" p-id="10825" data-spm-anchor-id="a313x.search_index.0.i2.6abc3a81NrRoRK" class="selected"></path><path d="M1015.876 687.832H8.124c-4.42 0-7.998-3.578-7.998-7.998s3.578-7.998 7.998-7.998h1007.75c4.422 0 8 3.578 8 7.998s-3.578 7.998-7.998 7.998zM512 767.782c-17.636 0-31.992-14.34-31.992-31.992s14.356-31.992 31.992-31.992c17.636 0 31.992 14.34 31.992 31.992s-14.356 31.992-31.992 31.992z m0-47.99c-8.81 0-15.996 7.186-15.996 15.996s7.186 15.996 15.996 15.996c8.824 0 15.996-7.186 15.996-15.996s-7.172-15.996-15.996-15.996zM376.144 975.762a8.01 8.01 0 0 1-7.826-9.732l31.992-143.964c0.968-4.294 5.294-6.952 9.544-6.076a8.012 8.012 0 0 1 6.078 9.542l-31.992 143.964a8.002 8.002 0 0 1-7.796 6.266zM647.872 975.762a8.002 8.002 0 0 1-7.808-6.266l-31.992-143.964a8.01 8.01 0 0 1 6.078-9.542 7.992 7.992 0 0 1 9.542 6.076l31.992 143.964a8.012 8.012 0 0 1-7.812 9.732z" fill="#116FFF" p-id="10826"></path><path d="M671.96 975.762H352.04a7.994 7.994 0 0 1-7.998-7.998 7.992 7.992 0 0 1 7.998-7.998h319.92a7.99 7.99 0 0 1 7.996 7.998 7.99 7.99 0 0 1-7.996 7.998zM967.886 640.094H56.112a7.994 7.994 0 0 1-7.998-7.998V104.224a7.994 7.994 0 0 1 7.998-7.998h911.774c4.422 0 8 3.578 8 7.998v527.872a7.994 7.994 0 0 1-8 7.998z m-903.776-15.996h895.78V112.222H64.11v511.876z" fill="#116FFF" p-id="10827"></path><path d="M967.886 800.054H56.112c-30.868 0-55.986-25.12-55.986-55.986V104.224c0-30.868 25.12-55.986 55.986-55.986h911.774c30.868 0 55.988 25.12 55.988 55.986v639.844c0.002 30.868-25.12 55.986-55.988 55.986zM56.112 64.234c-22.042 0-39.99 17.942-39.99 39.99v639.844c0 22.056 17.95 39.99 39.99 39.99h911.774c22.058 0 39.992-17.934 39.992-39.99V104.224c0-22.048-17.934-39.99-39.992-39.99H56.112z" fill="#116FFF" p-id="10828"></path><path d="M967.886 831.796H56.112c-31.382 0-55.986-24.588-55.986-55.986v-31.992c0-4.42 3.578-7.998 7.998-7.998s7.998 3.578 7.998 7.998v31.992c0 22.432 17.574 39.99 39.99 39.99h911.774c22.434 0 39.992-17.558 39.992-39.99v-31.742a7.994 7.994 0 0 1 7.996-7.998c4.422 0 8 3.578 8 7.998v31.742c0.002 31.398-24.588 55.986-55.988 55.986zM88.104 640.094a7.994 7.994 0 0 1-7.998-7.998V104.224c0-4.42 3.578-7.998 7.998-7.998s7.998 3.578 7.998 7.998v527.872a7.994 7.994 0 0 1-7.998 7.998z" fill="#116FFF" p-id="10829"></path><path d="M72.108 160.21h-15.996a7.994 7.994 0 0 1-7.998-7.998 7.994 7.994 0 0 1 7.998-7.998h15.996a7.994 7.994 0 0 1 7.998 7.998 7.992 7.992 0 0 1-7.998 7.998zM72.108 208.2h-15.996a7.994 7.994 0 0 1-7.998-7.998 7.994 7.994 0 0 1 7.998-7.998h15.996a7.994 7.994 0 0 1 7.998 7.998 7.992 7.992 0 0 1-7.998 7.998zM72.108 256.188h-15.996a7.994 7.994 0 0 1-7.998-7.998 7.994 7.994 0 0 1 7.998-7.998h15.996a7.994 7.994 0 0 1 7.998 7.998 7.992 7.992 0 0 1-7.998 7.998zM72.108 304.176h-15.996a7.994 7.994 0 0 1-7.998-7.998 7.994 7.994 0 0 1 7.998-7.998h15.996a7.994 7.994 0 0 1 7.998 7.998 7.992 7.992 0 0 1-7.998 7.998z" fill="#116FFF" p-id="10830"></path><path d="M72.108 352.164h-15.996a7.994 7.994 0 0 1-7.998-7.998 7.994 7.994 0 0 1 7.998-7.998h15.996a7.994 7.994 0 0 1 7.998 7.998 7.992 7.992 0 0 1-7.998 7.998z" fill="#116FFF" p-id="10831"></path><path d="M72.108 400.152h-15.996c-4.42 0-7.998-3.578-7.998-7.998s3.578-7.998 7.998-7.998h15.996c4.42 0 7.998 3.578 7.998 7.998s-3.576 7.998-7.998 7.998z" fill="#116FFF" p-id="10832"></path><path d="M72.108 448.14h-15.996c-4.42 0-7.998-3.578-7.998-7.998s3.578-7.998 7.998-7.998h15.996c4.42 0 7.998 3.578 7.998 7.998s-3.576 7.998-7.998 7.998z" fill="#116FFF" p-id="10833"></path><path d="M72.108 496.128h-15.996c-4.42 0-7.998-3.578-7.998-7.998s3.578-7.998 7.998-7.998h15.996c4.42 0 7.998 3.578 7.998 7.998s-3.576 7.998-7.998 7.998z" fill="#116FFF" p-id="10834"></path><path d="M72.108 544.118h-15.996c-4.42 0-7.998-3.578-7.998-7.998s3.578-7.998 7.998-7.998h15.996c4.42 0 7.998 3.578 7.998 7.998s-3.576 7.998-7.998 7.998z" fill="#116FFF" p-id="10835"></path><path d="M72.108 592.106h-15.996c-4.42 0-7.998-3.578-7.998-7.998s3.578-7.998 7.998-7.998h15.996c4.42 0 7.998 3.578 7.998 7.998s-3.576 7.998-7.998 7.998z" fill="#116FFF" p-id="10836"></path><path d="M200.078 160.21H136.092a7.994 7.994 0 0 1-7.998-7.998 7.994 7.994 0 0 1 7.998-7.998h63.984a7.994 7.994 0 0 1 7.998 7.998 7.99 7.99 0 0 1-7.996 7.998zM488.006 208.2H264.062a7.992 7.992 0 0 1-7.998-7.998 7.994 7.994 0 0 1 7.998-7.998h223.944a7.994 7.994 0 0 1 7.998 7.998 7.994 7.994 0 0 1-7.998 7.998zM232.07 208.2h-79.98a7.994 7.994 0 0 1-7.998-7.998 7.994 7.994 0 0 1 7.998-7.998h79.98a7.994 7.994 0 0 1 7.998 7.998 7.994 7.994 0 0 1-7.998 7.998zM679.958 256.188H472.01a7.994 7.994 0 0 1-7.998-7.998 7.994 7.994 0 0 1 7.998-7.998h207.948c4.422 0 8 3.578 8 7.998a7.994 7.994 0 0 1-8 7.998zM775.934 256.188h-63.984a7.992 7.992 0 0 1-7.996-7.998 7.994 7.994 0 0 1 7.996-7.998h63.984c4.422 0 8 3.578 8 7.998a7.994 7.994 0 0 1-8 7.998zM440.018 256.188H168.084a7.994 7.994 0 0 1-7.998-7.998 7.994 7.994 0 0 1 7.998-7.998h271.934a7.994 7.994 0 0 1 7.998 7.998 7.994 7.994 0 0 1-7.998 7.998zM216.074 352.164H168.084a7.994 7.994 0 0 1-7.998-7.998 7.994 7.994 0 0 1 7.998-7.998h47.988a7.994 7.994 0 0 1 7.998 7.998 7.99 7.99 0 0 1-7.996 7.998zM485.506 352.164h-237.44a7.994 7.994 0 0 1-7.998-7.998 7.994 7.994 0 0 1 7.998-7.998h237.442a7.994 7.994 0 0 1 7.998 7.998 7.996 7.996 0 0 1-8 7.998zM551.988 304.176H184.082a7.994 7.994 0 0 1-7.998-7.998 7.994 7.994 0 0 1 7.998-7.998h367.908a7.996 7.996 0 1 1-0.002 15.996zM535.992 400.152h-143.962c-4.422 0-7.998-3.578-7.998-7.998s3.576-7.998 7.998-7.998h143.962c4.422 0 8 3.578 8 7.998s-3.578 7.998-8 7.998zM424.022 448.14H152.088c-4.42 0-7.998-3.578-7.998-7.998s3.578-7.998 7.998-7.998h271.934c4.42 0 7.998 3.578 7.998 7.998s-3.578 7.998-7.998 7.998zM280.058 544.118H152.088c-4.42 0-7.998-3.578-7.998-7.998s3.578-7.998 7.998-7.998h127.968c4.42 0 7.998 3.578 7.998 7.998s-3.576 7.998-7.996 7.998zM599.976 496.128H376.034c-4.422 0-7.998-3.578-7.998-7.998s3.576-7.998 7.998-7.998h223.942c4.422 0 8 3.578 8 7.998s-3.578 7.998-8 7.998zM647.964 496.128h-15.996c-4.418 0-7.996-3.578-7.996-7.998s3.578-7.998 7.996-7.998h15.996c4.422 0 8 3.578 8 7.998s-3.578 7.998-8 7.998zM344.042 496.128H168.084c-4.42 0-7.998-3.578-7.998-7.998s3.578-7.998 7.998-7.998h175.958c4.42 0 7.998 3.578 7.998 7.998s-3.578 7.998-7.998 7.998zM200.078 592.106H136.092c-4.42 0-7.998-3.578-7.998-7.998s3.578-7.998 7.998-7.998h63.984c4.42 0 7.998 3.578 7.998 7.998s-3.576 7.998-7.996 7.998zM551.988 448.14h-95.974c-4.422 0-7.998-3.578-7.998-7.998s3.576-7.998 7.998-7.998h95.974c4.422 0 8 3.578 8 7.998s-3.578 7.998-8 7.998zM679.958 400.152h-111.972c-4.418 0-7.996-3.578-7.996-7.998s3.578-7.998 7.996-7.998h111.972c4.422 0 8 3.578 8 7.998s-3.58 7.998-8 7.998zM360.038 400.152H168.084c-4.42 0-7.998-3.578-7.998-7.998s3.578-7.998 7.998-7.998h191.954c4.42 0 7.998 3.578 7.998 7.998s-3.578 7.998-7.998 7.998z" fill="#116FFF" p-id="10837"></path></svg>