<?xml version="1.0" standalone="no"?><!DOCTYPE svg PUBLIC "-//W3C//DTD SVG 1.1//EN" "http://www.w3.org/Graphics/SVG/1.1/DTD/svg11.dtd"><svg t="1694400141317" class="icon" viewBox="0 0 1024 1024" version="1.1" xmlns="http://www.w3.org/2000/svg" p-id="11138" xmlns:xlink="http://www.w3.org/1999/xlink" width="200" height="200"><path d="M336.457143 680.228571m-32.914286 0a32.914286 32.914286 0 1 0 65.828572 0 32.914286 32.914286 0 1 0-65.828572 0Z" fill="#6EC8E5" p-id="11139"></path><path d="M508.342857 96.914286C281.6 96.914286 96.914286 281.6 96.914286 508.342857s184.685714 411.428571 411.428571 411.428572 411.428571-184.685714 411.428572-411.428572S735.085714 96.914286 508.342857 96.914286z m18.285714 484.571428l-47.542857 47.542857-98.742857 98.742858c-25.6 25.6-65.828571 25.6-91.428571 0s-25.6-65.828571 0-91.428572l98.742857-98.742857 47.542857-47.542857c-21.942857-56.685714-9.142857-124.342857 36.571429-170.057143 47.542857-47.542857 118.857143-58.514286 177.371428-34.742857l-65.828571 65.828571v78.628572l43.885714 43.885714 71.314286 71.314286c-45.714286 45.714286-113.371429 58.514286-171.885715 36.571428z m197.485715-71.314285l-67.657143-67.657143 74.971428-74.971429c20.114286 45.714286 18.285714 98.742857-7.314285 142.628572z" fill="#6EC8E5" p-id="11140"></path></svg>