<?xml version="1.0" standalone="no"?><!DOCTYPE svg PUBLIC "-//W3C//DTD SVG 1.1//EN" "http://www.w3.org/Graphics/SVG/1.1/DTD/svg11.dtd"><svg t="1694063530458" class="icon" viewBox="0 0 1024 1024" version="1.1" xmlns="http://www.w3.org/2000/svg" p-id="5417" xmlns:xlink="http://www.w3.org/1999/xlink" width="200" height="200"><path d="M614.4 336.457143H409.6c-43.885714 0-73.142857 29.257143-73.142857 73.142857v212.114286c0 36.571429 29.257143 65.828571 73.142857 65.828571h212.114286c36.571429 0 65.828571-29.257143 65.828571-73.142857V409.6c0-43.885714-29.257143-73.142857-73.142857-73.142857z m-14.628571 87.771428v182.857143H424.228571V424.228571h175.542858z" fill="#ffffff" p-id="5418"></path><path d="M958.171429 555.885714c21.942857 0 43.885714-21.942857 43.885714-43.885714s-21.942857-43.885714-43.885714-43.885714h-117.028572v-73.142857h117.028572c21.942857 0 43.885714-21.942857 43.885714-43.885715s-21.942857-43.885714-43.885714-43.885714h-117.028572v-7.314286c0-65.828571-51.2-124.342857-124.342857-124.342857h-7.314286V65.828571c0-21.942857-21.942857-43.885714-43.885714-43.885714s-36.571429 14.628571-36.571429 43.885714v117.028572h-73.142857V65.828571c0-21.942857-21.942857-43.885714-43.885714-43.885714s-43.885714 14.628571-43.885714 43.885714v117.028572h-73.142857V65.828571c0-21.942857-21.942857-43.885714-43.885715-43.885714s-43.885714 21.942857-43.885714 43.885714v117.028572h-7.314286c-65.828571 0-124.342857 51.2-124.342857 124.342857v7.314286H65.828571c-21.942857 0-43.885714 21.942857-43.885714 43.885714s21.942857 43.885714 43.885714 43.885714h117.028572v73.142857H65.828571c-29.257143-7.314286-43.885714 14.628571-43.885714 36.571429s21.942857 43.885714 43.885714 43.885714h117.028572v73.142857H65.828571c-21.942857 0-43.885714 21.942857-43.885714 43.885715s21.942857 43.885714 43.885714 43.885714h117.028572v7.314286c0 65.828571 51.2 124.342857 124.342857 124.342857h7.314286v117.028571c0 21.942857 21.942857 43.885714 43.885714 43.885715s43.885714-21.942857 43.885714-43.885715v-117.028571h73.142857v117.028571c0 21.942857 21.942857 43.885714 43.885715 43.885715s43.885714-21.942857 43.885714-43.885715v-117.028571h73.142857v117.028571c0 21.942857 21.942857 43.885714 43.885714 43.885715s43.885714-21.942857 43.885715-43.885715v-117.028571h7.314285c65.828571 0 124.342857-51.2 124.342858-124.342857v-14.628572h117.028571c21.942857 0 43.885714-21.942857 43.885714-43.885714s-21.942857-43.885714-43.885714-43.885714h-117.028571v-73.142857h102.4z m-197.485715-256v424.228572c0 21.942857-14.628571 36.571429-36.571428 36.571428H299.885714c-21.942857 0-36.571429-14.628571-36.571428-36.571428V299.885714c0-21.942857 14.628571-36.571429 36.571428-36.571428h424.228572c21.942857 0 36.571429 14.628571 36.571428 36.571428z" fill="#ffffff" p-id="5419"></path></svg>